<?xml version="1.0" encoding="UTF-8" standalone="no"?>
<!DOCTYPE svg PUBLIC "-//W3C//DTD SVG 1.1//EN" "http://www.w3.org/Graphics/SVG/1.1/DTD/svg11.dtd">
<svg width="100%" height="100%" viewBox="0 0 1200 500" version="1.1" xmlns="http://www.w3.org/2000/svg" xmlns:xlink="http://www.w3.org/1999/xlink" xml:space="preserve" xmlns:serif="http://www.serif.com/" style="fill-rule:evenodd;clip-rule:evenodd;stroke-linejoin:round;stroke-miterlimit:2;">
    <g transform="matrix(1,0,0,1,-157.016,-273.105)">
        <path d="M303.952,409.545C304.741,409.548 305.535,409.556 306.335,409.57C328.665,409.342 346.262,410.373 359.592,419.032C372.922,427.919 379.701,443.186 379.929,464.833L379.929,586L344.211,586L344.211,570.277L343.527,570.277C340.223,576.316 335.096,580.759 328.146,583.607C321.311,586.57 311.854,588.051 299.777,588.051C279.953,587.823 264.686,582.582 253.977,572.328C242.697,562.302 237.058,549.485 237.058,533.876C237.058,518.951 241.957,506.589 251.755,496.791C261.553,486.765 275.909,481.638 294.821,481.41L344.211,481.41L344.211,462.782C344.439,447.174 332.305,439.597 307.81,440.053C298.923,440.053 291.916,440.964 286.789,442.787C284.86,443.567 283.079,444.539 281.446,445.703L303.952,409.545ZM344.211,523.622L344.211,510.805L301.486,510.805C280.751,511.26 270.497,518.381 270.725,532.167C270.725,538.205 273.402,543.332 278.757,547.548C283.884,552.219 292.372,554.555 304.221,554.555C319.146,554.783 329.685,553.017 335.837,549.257C341.42,545.497 344.211,536.952 344.211,523.622Z" style="fill:rgb(66,66,66);"/>
        <path d="M426.071,657.777L461.789,657.777L461.789,567.03C468.283,573.41 475.404,578.424 483.151,582.069C490.329,586.057 498.475,588.051 507.59,588.051C518.641,587.823 528.098,585.601 535.959,581.386C543.934,577.284 550.371,571.815 555.271,564.979C560.17,559.169 563.531,551.706 565.354,542.592C567.063,533.477 567.917,518.438 567.917,497.475C567.917,475.941 567.063,460.674 565.354,451.674C563.531,442.559 560.17,435.211 555.271,429.628C545.244,414.703 529.351,406.955 507.59,406.386C488.905,406.955 473.638,413.848 461.789,427.064L461.789,408.607L426.071,408.607L426.071,657.777ZM496.823,552.333C488.848,552.333 482.525,550.624 477.854,547.206C472.954,543.902 469.366,539.573 467.087,534.218C464.922,528.863 463.498,522.882 462.814,516.273C462.131,510.007 461.789,503.741 461.789,497.475C461.789,490.753 462.131,484.088 462.814,477.479C463.498,471.213 464.922,465.403 467.087,460.048C469.366,454.693 472.954,450.364 477.854,447.06C482.525,443.756 488.848,442.104 496.823,442.104C505.254,442.104 511.919,443.528 516.818,446.376C521.717,449.452 525.192,453.668 527.243,459.022C529.522,464.149 531.06,470.074 531.857,476.796C532.085,483.518 532.199,490.411 532.199,497.475C532.199,504.197 532.085,510.748 531.857,517.128C531.06,523.622 529.522,529.547 527.243,534.901C525.192,540.028 521.717,544.244 516.818,547.548C511.919,550.738 505.254,552.333 496.823,552.333Z" style="fill:rgb(66,66,66);fill-rule:nonzero;"/>
        <path d="M599.021,497.133C599.021,515.818 600.559,530.059 603.635,539.857C606.825,549.656 611.724,558.144 618.332,565.321C623.231,570.904 630.067,575.917 638.84,580.36C647.499,585.259 658.607,587.823 672.165,588.051C686.179,587.823 697.515,585.259 706.174,580.36C710.845,578.31 714.662,575.86 717.624,573.012C720.928,570.505 723.719,567.942 725.998,565.321C733.062,558.144 738.075,549.656 741.037,539.857C743.885,530.059 745.31,515.818 745.31,497.133C745.31,478.448 743.885,464.092 741.037,454.066C738.075,444.268 733.062,436.008 725.998,429.286C721.327,423.362 714.719,418.064 706.174,413.393C697.515,408.949 686.179,406.614 672.165,406.386C658.607,406.614 647.499,408.949 638.84,413.393C630.067,418.064 623.231,423.362 618.332,429.286C611.724,436.008 606.825,444.268 603.635,454.066C600.559,464.092 599.021,478.448 599.021,497.133ZM709.592,497.475C709.592,509.551 709.022,518.438 707.883,524.135C706.743,529.945 704.408,535.072 700.876,539.516C698.256,542.934 694.382,545.953 689.255,548.573C684.356,551.08 678.659,552.333 672.165,552.333C666.127,552.333 660.544,551.08 655.417,548.573C650.518,545.953 646.53,542.934 643.454,539.516C640.378,535.072 638.156,529.945 636.789,524.135C635.422,518.438 634.738,509.438 634.738,497.133C634.738,484.714 635.422,475.6 636.789,469.789C638.156,464.206 640.378,459.307 643.454,455.092C646.53,451.104 650.518,447.971 655.417,445.692C660.544,443.3 666.127,442.104 672.165,442.104C678.659,442.104 684.356,443.3 689.255,445.692C694.382,447.971 698.256,451.104 700.876,455.092C704.408,459.307 706.743,464.206 707.883,469.789C709.022,475.6 709.592,484.828 709.592,497.475Z" style="fill:rgb(66,66,66);fill-rule:nonzero;"/>
        <path d="M807.346,608.046C811.903,612.261 817.144,615.85 823.068,618.813C829.107,622.117 835.373,623.882 841.867,624.11C854.058,624.11 863.856,620.749 871.262,614.027C878.553,607.191 882.313,597.735 882.541,585.658L882.541,567.372C870.806,580.702 855.539,587.595 836.74,588.051C825.233,587.823 815.663,585.373 808.029,580.702C800.054,576.259 793.959,571.474 789.743,566.347C785.072,560.536 781.711,553.415 779.66,544.984C777.495,536.667 776.413,520.831 776.413,497.475C776.413,473.663 777.495,457.541 779.66,449.11C781.711,440.793 785.072,433.786 789.743,428.09C793.959,422.507 800.054,417.494 808.029,413.051C815.663,408.835 825.233,406.614 836.74,406.386C854.4,406.386 869.667,413.393 882.541,427.406L882.541,408.607L918.259,408.607L918.259,581.728C917.803,608.388 910.113,627.984 895.188,640.517C880.148,653.391 862.147,659.828 841.184,659.828C821.141,659.448 803.554,652.495 788.421,638.969L807.346,608.046ZM812.131,497.475C812.131,511.033 812.587,520.375 813.498,525.502C814.296,530.857 816.175,535.3 819.138,538.832C821.53,542.022 825.176,544.927 830.075,547.548C834.746,550.738 840.557,552.333 847.507,552.333C854.457,552.333 860.267,550.738 864.938,547.548C869.61,544.927 873.142,542.022 875.534,538.832C878.496,535.3 880.49,530.857 881.516,525.502C882.199,520.375 882.541,511.033 882.541,497.475C882.541,483.689 882.199,474.118 881.516,468.764C880.49,463.409 878.496,459.079 875.534,455.775C873.142,452.585 869.61,449.452 864.938,446.376C860.267,443.756 854.457,442.331 847.507,442.104C840.557,442.331 834.746,443.756 830.075,446.376C825.176,449.452 821.53,452.585 819.138,455.775C816.175,459.079 814.296,463.409 813.498,468.764C812.587,474.118 812.131,483.689 812.131,497.475Z" style="fill:rgb(66,66,66);"/>
        <g transform="matrix(1,0,0,1,-175,-0.00397438)">
            <path d="M1230.76,585.585C1223.95,587.297 1216.86,588.119 1209.47,588.051C1200.13,588.051 1191.01,586.684 1182.13,583.949C1177.68,582.468 1173.35,580.474 1169.14,577.968C1164.69,575.803 1160.54,573.126 1156.66,569.936C1149.14,563.327 1143.05,554.099 1138.38,542.25C1133.25,530.857 1130.69,516.046 1130.69,497.816C1130.69,480.271 1132.91,465.688 1137.35,454.066C1141.79,442.217 1147.49,432.875 1154.44,426.039C1161.5,419.089 1169.42,414.076 1178.19,411C1186.85,407.924 1195.4,406.386 1203.83,406.386C1224.11,406.614 1241.26,413.279 1255.27,426.381C1269.51,439.711 1276.75,458.054 1276.98,481.41L1276.98,510.805L1166.4,510.805C1166.4,525.046 1170.51,535.87 1178.71,543.275C1186.34,550.795 1196.37,554.555 1208.79,554.555C1223.13,554.555 1247.81,550.796 1259.33,539.521L1230.76,585.585ZM1166.4,481.41L1241.26,481.41C1240.8,467.624 1237.1,457.2 1230.15,450.136C1223.31,443.414 1214.54,440.053 1203.83,440.053C1193.12,440.053 1184.35,443.414 1177.51,450.136C1170.79,457.2 1167.09,467.624 1166.4,481.41Z" style="fill:rgb(66,66,66);"/>
        </g>
        <path d="M1230.76,585.585C1223.95,587.297 1216.86,588.119 1209.47,588.051C1200.13,588.051 1191.01,586.684 1182.13,583.949C1177.68,582.468 1173.35,580.474 1169.14,577.968C1164.69,575.803 1160.54,573.126 1156.66,569.936C1149.14,563.327 1143.05,554.099 1138.38,542.25C1133.25,530.857 1130.69,516.046 1130.69,497.816C1130.69,480.271 1132.91,465.688 1137.35,454.066C1141.79,442.217 1147.49,432.875 1154.44,426.039C1161.5,419.089 1169.42,414.076 1178.19,411C1186.85,407.924 1195.4,406.386 1203.83,406.386C1224.11,406.614 1241.26,413.279 1255.27,426.381C1269.51,439.711 1276.75,458.054 1276.98,481.41L1276.98,510.805L1166.4,510.805C1166.4,525.046 1170.51,535.87 1178.71,543.275C1186.34,550.795 1196.37,554.555 1208.79,554.555C1223.13,554.555 1247.81,550.796 1259.33,539.521L1230.76,585.585ZM1166.4,481.41L1241.26,481.41C1240.8,467.624 1237.1,457.2 1230.15,450.136C1223.31,443.414 1214.54,440.053 1203.83,440.053C1193.12,440.053 1184.35,443.414 1177.51,450.136C1170.79,457.2 1167.09,467.624 1166.4,481.41Z" style="fill:rgb(66,66,66);"/>
    </g>
</svg>
